<?xml version="1.0" standalone="no"?>
<!DOCTYPE svg PUBLIC "-//W3C//DTD SVG 20010904//EN"
 "http://www.w3.org/TR/2001/REC-SVG-20010904/DTD/svg10.dtd">
<svg version="1.0" xmlns="http://www.w3.org/2000/svg"
 width="60.000000pt" height="59.000000pt" viewBox="0 0 60.000000 59.000000"
 preserveAspectRatio="xMidYMid meet">

<g transform="translate(0.000000,59.000000) scale(0.100000,-0.100000)"
fill="#000000" stroke="none">
<path d="M214 559 c-65 -19 -127 -72 -163 -140 -31 -60 -33 -69 -29 -139 7
-112 59 -193 153 -236 57 -27 169 -32 220 -10 27 11 24 12 -36 8 -120 -8 -216
57 -252 169 -22 66 -21 87 3 152 37 100 125 161 230 161 70 0 113 -16 164 -63
l29 -26 -17 26 c-51 81 -199 128 -302 98z"/>
<path d="M253 430 c-40 -24 -44 -34 -5 -14 64 33 155 5 201 -61 67 -99 -9
-243 -131 -246 -31 0 -32 -1 -9 -10 67 -27 192 55 207 136 15 80 -25 168 -89
198 -49 24 -134 22 -174 -3z"/>
<path d="M239 331 c-38 -38 -40 -91 -4 -126 57 -58 155 -22 155 56 0 51 -8 67
-41 84 -43 23 -77 18 -110 -14z"/>
</g>
</svg>
