<?xml version="1.0" standalone="no"?>
<!DOCTYPE svg PUBLIC "-//W3C//DTD SVG 20010904//EN"
 "http://www.w3.org/TR/2001/REC-SVG-20010904/DTD/svg10.dtd">
<svg version="1.0" xmlns="http://www.w3.org/2000/svg"
 width="255.000000pt" height="65.000000pt" viewBox="0 0 255.000000 65.000000"
 preserveAspectRatio="xMidYMid meet">

<g transform="translate(0.000000,65.000000) scale(0.100000,-0.100000)"
fill="#000000" stroke="none">
<path d="M1410 391 c0 -195 2 -201 76 -201 40 0 44 2 44 24 0 15 -7 26 -20 29
-19 5 -20 14 -20 161 l0 156 -40 0 -40 0 0 -169z"/>
<path d="M20 510 c0 -29 1 -30 50 -30 l50 0 0 -145 0 -145 40 0 40 0 0 145 0
145 55 0 c54 0 55 0 55 30 l0 30 -145 0 -145 0 0 -30z"/>
<path d="M1673 450 c-30 -18 -63 -65 -63 -90 0 -17 30 -12 62 11 32 24 48 19
27 -8 -11 -14 -9 -13 12 2 18 13 23 22 16 27 -20 12 5 26 50 29 48 4 60 -3 38
-21 -8 -7 -15 -21 -15 -31 0 -16 8 -19 45 -19 25 0 45 3 45 6 0 3 -7 21 -16
40 -33 69 -133 96 -201 54z"/>
<path d="M2100 453 c-67 -21 -90 -56 -90 -134 0 -44 4 -55 33 -84 38 -38 102
-53 164 -38 29 7 39 14 41 32 3 22 1 23 -37 16 -64 -11 -131 13 -131 46 0 5
43 9 95 9 l95 0 0 31 c0 52 -27 96 -71 113 -39 16 -71 19 -99 9z m84 -59 c9
-8 16 -24 16 -35 0 -17 -7 -19 -60 -19 -51 0 -60 3 -60 18 0 9 4 22 8 28 17
26 74 31 96 8z"/>
<path d="M2370 447 c-21 -7 -40 -23 -48 -39 -20 -43 1 -78 63 -101 28 -10 56
-25 64 -32 13 -12 12 -15 -3 -21 -9 -3 -41 -4 -71 -2 -54 5 -55 4 -55 -23 0
-25 4 -27 54 -33 57 -8 126 5 144 27 40 48 14 101 -64 127 -30 10 -50 23 -52
34 -3 16 3 17 57 14 60 -3 61 -3 61 23 0 23 -5 27 -37 33 -52 8 -72 7 -113 -7z"/>
<path d="M310 320 l0 -130 40 0 39 0 3 93 3 92 43 9 c38 9 42 13 42 39 0 31 3
31 -67 11 -14 -4 -23 -2 -23 5 0 6 -17 11 -40 11 l-40 0 0 -130z"/>
<path d="M538 443 c-10 -2 -18 -14 -18 -26 0 -21 4 -22 60 -19 62 4 90 -7 90
-34 0 -10 -14 -14 -49 -14 -59 0 -108 -16 -121 -40 -17 -32 -11 -78 12 -100
24 -22 95 -28 129 -9 15 7 24 7 34 -1 8 -6 26 -10 41 -8 l27 3 -2 98 c-3 116
-5 123 -42 142 -26 14 -121 19 -161 8z m132 -161 c0 -30 -30 -52 -70 -52 -19
0 -50 25 -50 40 0 22 34 40 76 40 42 0 44 -1 44 -28z"/>
<path d="M784 432 c4 -10 26 -68 50 -128 l44 -109 43 -3 44 -3 48 123 c26 68
47 126 47 131 0 4 -17 7 -38 7 l-38 0 -28 -85 c-15 -47 -31 -83 -36 -80 -5 3
-20 41 -35 85 l-27 80 -39 0 c-34 0 -39 -3 -35 -18z"/>
<path d="M1148 435 c-36 -20 -58 -64 -58 -115 0 -86 52 -130 153 -130 70 0 87
7 87 34 0 20 -4 21 -64 18 -55 -3 -68 0 -85 17 -12 12 -21 26 -21 31 0 6 39
10 96 10 l97 0 -6 46 c-7 68 -40 97 -114 101 -39 2 -67 -2 -85 -12z m120 -47
c7 -7 12 -20 12 -30 0 -15 -9 -18 -60 -18 -62 0 -68 5 -50 41 12 22 78 27 98
7z"/>
</g>
</svg>
